<?xml version="1.0" encoding="UTF-8"?>
<svg xmlns="http://www.w3.org/2000/svg" xmlns:xlink="http://www.w3.org/1999/xlink" width="48pt" height="48pt" viewBox="0 0 48 48" version="1.1">
<g id="surface22202835">
<path style=" stroke:none;fill-rule:nonzero;fill:rgb(100%,100%,100%);fill-opacity:1;" d="M 25.457031 7.503906 C 19.285156 7.335938 14.019531 7.851562 7.878906 8.480469 C 7.265625 8.546875 6.632812 8.617188 6.109375 8.933594 C 4.753906 9.75 4.726562 11.089844 4.863281 12.664062 C 4.910156 13.1875 5.027344 13.8125 5.515625 14.003906 C 5.648438 14.058594 5.796875 14.066406 5.941406 14.078125 C 17.042969 14.8125 29.40625 14.460938 40.5 13.609375 C 41.867188 13.503906 42.207031 13.363281 42.9375 12.203125 C 43.761719 10.890625 43.554688 9.136719 42.230469 8.332031 C 40.902344 7.53125 40.507812 7.460938 38.960938 7.457031 C 34.773438 7.449219 29.640625 7.621094 25.457031 7.503906 Z M 25.457031 7.503906 "/>
<path style=" stroke:none;fill-rule:nonzero;fill:rgb(0.392157%,0.392157%,0.392157%);fill-opacity:1;" d="M 18.882812 14.980469 C 14.625 14.980469 10.238281 14.863281 5.910156 14.578125 C 5.757812 14.566406 5.546875 14.554688 5.328125 14.46875 C 4.488281 14.136719 4.398438 13.101562 4.367188 12.710938 C 4.226562 11.117188 4.230469 9.484375 5.851562 8.507812 C 6.488281 8.121094 7.230469 8.046875 7.828125 7.988281 C 13.613281 7.390625 19.082031 6.824219 25.472656 7.007812 C 28.058594 7.078125 31.019531 7.039062 33.882812 7 C 35.644531 6.976562 37.371094 6.957031 38.960938 6.957031 C 40.582031 6.960938 41.0625 7.042969 42.488281 7.90625 C 43.171875 8.320312 43.648438 8.980469 43.835938 9.769531 C 44.050781 10.664062 43.875 11.648438 43.359375 12.46875 C 42.527344 13.789062 42.039062 13.992188 40.535156 14.109375 C 34.738281 14.554688 27.058594 14.980469 18.882812 14.980469 Z M 23.074219 7.972656 C 17.734375 7.972656 12.953125 8.464844 7.929688 8.980469 C 7.296875 9.046875 6.78125 9.113281 6.367188 9.363281 C 5.332031 9.984375 5.21875 10.949219 5.363281 12.625 C 5.40625 13.160156 5.519531 13.472656 5.695312 13.539062 C 5.765625 13.566406 5.878906 13.574219 5.972656 13.578125 C 18.566406 14.410156 31.679688 13.785156 40.460938 13.113281 C 41.683594 13.019531 41.878906 12.945312 42.511719 11.9375 C 42.886719 11.34375 43.015625 10.636719 42.863281 10 C 42.777344 9.628906 42.550781 9.109375 41.96875 8.761719 C 40.730469 8.011719 40.4375 7.960938 38.957031 7.957031 C 37.371094 7.953125 35.652344 7.976562 33.894531 8 C 31.023438 8.039062 28.050781 8.078125 25.441406 8.003906 C 24.640625 7.980469 23.851562 7.972656 23.074219 7.972656 Z M 23.074219 7.972656 "/>
<path style=" stroke:none;fill-rule:nonzero;fill:rgb(100%,100%,100%);fill-opacity:1;" d="M 24.804688 21.40625 C 19.082031 21.597656 13.417969 21.457031 7.695312 21.636719 C 6.683594 21.664062 5.503906 21.789062 4.96875 22.644531 C 4.4375 23.488281 4.613281 24.941406 4.753906 25.960938 C 4.875 26.863281 5.464844 27.28125 6.375 27.375 C 7.429688 27.480469 8.855469 27.4375 9.917969 27.457031 C 19.144531 27.628906 29 27.226562 38.035156 27.449219 C 39.277344 27.480469 40.609375 27.238281 41.527344 26.410156 C 42.28125 25.726562 42.613281 24.679688 42.652344 23.664062 C 42.683594 22.800781 42.488281 21.859375 41.824219 21.3125 C 41.171875 20.773438 40.253906 20.753906 39.410156 20.757812 C 34.351562 20.789062 29.859375 21.238281 24.804688 21.40625 Z M 24.804688 21.40625 "/>
<path style=" stroke:none;fill-rule:nonzero;fill:rgb(0.392157%,0.392157%,0.392157%);fill-opacity:1;" d="M 15.117188 28.003906 C 13.363281 28.003906 11.621094 27.988281 9.90625 27.957031 C 8.855469 27.9375 7.414062 27.980469 6.324219 27.871094 C 4.804688 27.722656 4.359375 26.785156 4.257812 26.027344 C 4.085938 24.757812 3.949219 23.328125 4.546875 22.378906 C 5.28125 21.210938 6.902344 21.160156 7.679688 21.136719 C 10.484375 21.050781 13.316406 21.039062 16.054688 21.027344 C 18.914062 21.015625 21.871094 21.007812 24.789062 20.90625 C 26.851562 20.839844 28.847656 20.722656 30.773438 20.609375 C 33.542969 20.445312 36.40625 20.277344 39.40625 20.257812 C 40.175781 20.257812 41.316406 20.246094 42.140625 20.929688 C 42.839844 21.5 43.195312 22.480469 43.148438 23.683594 C 43.101562 24.976562 42.644531 26.078125 41.863281 26.78125 C 40.738281 27.800781 39.148438 27.976562 38.023438 27.949219 C 33.332031 27.835938 28.320312 27.890625 23.472656 27.941406 C 20.71875 27.972656 17.902344 28.003906 15.117188 28.003906 Z M 24.820312 21.90625 C 21.890625 22.003906 18.925781 22.015625 16.058594 22.027344 C 13.324219 22.039062 10.5 22.046875 7.710938 22.132812 C 6.738281 22.164062 5.785156 22.277344 5.390625 22.910156 C 4.9375 23.628906 5.140625 25.101562 5.246094 25.890625 C 5.308594 26.324219 5.492188 26.78125 6.425781 26.875 C 7.460938 26.980469 8.890625 26.9375 9.925781 26.957031 C 14.34375 27.039062 18.980469 26.988281 23.464844 26.9375 C 28.320312 26.886719 33.339844 26.835938 38.050781 26.949219 C 39 26.972656 40.316406 26.832031 41.195312 26.035156 C 41.972656 25.332031 42.128906 24.234375 42.152344 23.640625 C 42.171875 23.128906 42.113281 22.195312 41.507812 21.695312 C 41.003906 21.28125 40.222656 21.253906 39.414062 21.257812 C 36.4375 21.273438 33.714844 21.433594 30.832031 21.605469 C 28.898438 21.71875 26.894531 21.839844 24.820312 21.90625 Z M 24.820312 21.90625 "/>
<path style=" stroke:none;fill-rule:nonzero;fill:rgb(100%,100%,100%);fill-opacity:1;" d="M 23.8125 33.914062 C 17.933594 33.96875 12.792969 33.457031 6.90625 33.6875 C 6.519531 33.703125 6.113281 33.800781 5.839844 34.070312 C 5.460938 34.449219 5.496094 35.058594 5.554688 35.585938 L 5.6875 36.757812 C 5.800781 37.765625 6.703125 39.535156 7.71875 39.539062 C 16.4375 39.589844 24.714844 39.566406 33.433594 39.46875 C 35.152344 39.445312 36.875 39.425781 38.585938 39.242188 C 39.65625 39.125 40.71875 38.949219 41.769531 38.710938 C 42.164062 38.617188 42.582031 38.503906 42.84375 38.195312 C 43.058594 37.941406 43.128906 37.597656 43.175781 37.269531 C 43.253906 36.691406 43.277344 36.105469 43.25 35.523438 C 43.199219 34.488281 42.351562 33.65625 41.316406 33.628906 C 35.425781 33.453125 29.753906 33.863281 23.8125 33.914062 Z M 23.8125 33.914062 "/>
<path style=" stroke:none;fill-rule:nonzero;fill:rgb(0.392157%,0.392157%,0.392157%);fill-opacity:1;" d="M 16.402344 40.066406 C 13.535156 40.066406 10.652344 40.058594 7.714844 40.042969 C 6.316406 40.035156 5.3125 37.90625 5.191406 36.816406 L 5.058594 35.644531 C 5.003906 35.171875 4.90625 34.296875 5.484375 33.71875 C 5.808594 33.394531 6.296875 33.210938 6.886719 33.1875 C 10.230469 33.058594 13.398438 33.164062 16.457031 33.273438 C 18.820312 33.355469 21.261719 33.441406 23.808594 33.414062 C 26.074219 33.394531 28.335938 33.324219 30.523438 33.253906 C 34.039062 33.136719 37.675781 33.023438 41.332031 33.128906 C 42.625 33.164062 43.6875 34.207031 43.75 35.5 C 43.777344 36.113281 43.753906 36.730469 43.667969 37.339844 C 43.613281 37.746094 43.519531 38.171875 43.226562 38.519531 C 42.867188 38.945312 42.34375 39.09375 41.878906 39.199219 C 40.816406 39.441406 39.722656 39.621094 38.636719 39.738281 C 36.871094 39.929688 35.046875 39.949219 33.4375 39.96875 C 27.574219 40.035156 22.011719 40.066406 16.402344 40.066406 Z M 10.117188 34.128906 C 9.074219 34.128906 8.015625 34.144531 6.925781 34.1875 C 6.59375 34.199219 6.332031 34.285156 6.191406 34.425781 C 5.980469 34.636719 6 35.078125 6.050781 35.53125 L 6.183594 36.703125 C 6.289062 37.644531 7.117188 39.039062 7.722656 39.042969 C 16.402344 39.09375 24.570312 39.070312 33.425781 38.96875 C 35.09375 38.949219 36.816406 38.929688 38.53125 38.746094 C 39.578125 38.632812 40.632812 38.457031 41.65625 38.222656 C 41.976562 38.148438 42.300781 38.0625 42.460938 37.875 C 42.589844 37.71875 42.640625 37.460938 42.675781 37.203125 C 42.753906 36.65625 42.777344 36.101562 42.75 35.546875 C 42.710938 34.773438 42.074219 34.152344 41.300781 34.128906 C 37.679688 34.023438 34.058594 34.136719 30.554688 34.253906 C 28.363281 34.320312 26.097656 34.394531 23.816406 34.414062 C 21.253906 34.445312 18.796875 34.355469 16.425781 34.273438 C 14.289062 34.199219 12.238281 34.128906 10.117188 34.128906 Z M 10.117188 34.128906 "/>
</g>
</svg>
